<svg xmlns="http://www.w3.org/2000/svg" version="1.0" width="3840.000000" height="2160.000000" preserveAspectRatio="xMidYMid meet"><rect id="backgroundrect" width="100%" height="100%" x="0" y="0" fill="none" stroke="none"/>
<metadata>
Created by potrace 1.16, written by Peter Selinger 2001-2019
</metadata>

<g class="currentLayer" style=""><title>Layer 1</title><g transform="translate(0,2160) scale(0.10000000149011612,-0.10000000149011612) " fill="#ffffff" stroke="none" id="svg_1" class="selected" fill-opacity="1">
<path d="M240 10805 c0 -5103 0 -5205 19 -5205 10 0 183 25 382 55 396 59 719 103 984 135 94 11 189 22 212 26 l43 5 2 2815 3 2815 905 -2691 c498 -1480 907 -2695 910 -2700 3 -5 53 -2 115 6 61 8 322 37 580 64 536 57 640 70 888 107 l177 27 0 4873 0 4873 -810 0 -810 0 -2 -2927 -3 -2928 -1014 2875 c-558 1581 -1022 2899 -1033 2928 l-19 52 -765 0 -764 0 0 -5205z" id="svg_2" fill="#ffffff" fill-opacity="1"/>
<path d="M7010 11205 c0 -4307 2 -4805 15 -4805 9 0 997 79 2197 175 1199 96 2194 175 2209 175 l29 0 0 791 0 791 -157 -6 c-607 -26 -825 -40 -2590 -162 l-93 -7 0 1205 0 1205 163 7 c223 10 1217 25 1635 26 l342 0 0 815 0 815 -247 0 c-137 0 -464 -4 -728 -10 -264 -5 -634 -12 -822 -16 l-343 -6 0 1091 0 1091 1420 0 1420 0 0 815 0 815 -2225 0 -2225 0 0 -4805z" id="svg_3" fill="#ffffff" fill-opacity="1"/>
<path d="M12480 15195 l0 -815 830 0 830 0 0 -3751 0 -3752 268 7 c147 3 509 9 805 12 l537 7 0 3738 0 3739 835 0 835 0 0 815 0 815 -2470 0 -2470 0 0 -815z" id="svg_4" fill="#ffffff" fill-opacity="1"/>
<path d="M18440 11500 l0 -4510 790 0 790 0 0 1845 0 1845 1100 0 1100 0 0 815 0 815 -1100 0 -1100 0 0 1035 0 1035 1455 0 1455 0 0 815 0 815 -2245 0 -2245 0 0 -4510z" id="svg_5" fill="#ffffff" fill-opacity="1"/>
<path d="M23920 11446 l0 -4565 53 -5 c28 -3 176 -8 327 -11 471 -10 1209 -41 2015 -85 634 -35 1792 -106 1888 -115 l57 -6 0 811 c0 781 -1 810 -18 810 -11 0 -237 13 -503 30 -1102 68 -1516 90 -2006 106 l-203 7 0 3793 0 3794 -805 0 -805 0 0 -4564z" id="svg_6" fill="#ffffff" fill-opacity="1"/>
<path d="M29600 11280 c0 -3294 3 -4730 10 -4730 6 0 156 -9 333 -20 503 -32 865 -61 1180 -96 l57 -7 0 4792 0 4791 -790 0 -790 0 0 -4730z" id="svg_7" fill="#ffffff" fill-opacity="1"/>
<path d="M32544 16002 c14 -23 1856 -4867 1856 -4881 0 -9 -463 -1085 -1029 -2391 -963 -2225 -1027 -2375 -1007 -2382 26 -9 340 -46 731 -88 347 -37 720 -83 870 -109 61 -11 111 -18 112 -18 0 1 261 616 579 1367 317 751 580 1368 584 1373 4 4 263 -661 576 -1479 313 -817 572 -1490 575 -1495 10 -17 1692 -299 1781 -299 16 0 28 4 28 9 0 5 -455 1230 -1011 2723 -557 1492 -1012 2720 -1011 2728 0 8 456 1122 1011 2474 556 1352 1011 2463 1011 2467 0 5 -389 8 -881 7 l-882 -3 -553 -1349 c-304 -742 -555 -1353 -556 -1357 -2 -4 -238 603 -525 1349 l-521 1357 -872 3 c-479 1 -869 -2 -866 -6z" id="svg_8" fill="#ffffff" fill-opacity="1"/>
</g></g></svg>